# xmcd CD database file
#
# Track frame offsets:
#	150
#	15432
#	32251
#	49558
#	63729
#	82516
#	96840
#	111907
#	128923
#	142472
#	159546
#	176836
#	188476
#	201423
#	217698
#	232241
#	247393
#	259271
#	274201
#	290012
#
# Disc length: 4072 seconds
#
# Revision: 0
# Processed by: cddbd v1.5.2PL0 Copyright (c) Steve Scherf et al.
# Submitted via: CDex 1.51
#
DISCID=2c0fe614
DTITLE=THE NASHVILLE RIDERS and LOBO JOE - COUNTRY CD 2
DYEAR=1900
DGENRE=Country
TTITLE0=ACHY BREAKY HEART
TTITLE1=I'M FROM THE COUNTRY
TTITLE2=NOTHIN' BUT THE TAILLIGHTS
TTITLE3=WHAT IF I DO
TTITLE4=WHO'S CREATIN' WHO
TTITLE5=COTTON EYE JOE
TTITLE6=THIRD RATE ROMANCE
TTITLE7=SHE'S GOT IT ALL
TTITLE8=THERE'S YOUR TROUBLE
TTITLE9=ONE OF THOSE NIGHTS TONIGHT
TTITLE10=YOU'LL NEVER KNOW
TTITLE11=PUT YOUR HEART INTO IT
TTITLE12=SHE DREW A BROKEN HEART
TTITLE13=DONT'T BE STUPID (YOU KNOW I LOVE YOU)
TTITLE14=ALL MY EX'S LIVE IN TEXAS
TTITLE15=FIVE, SIX, SEVEN, EIGHT
TTITLE16=THANK GOD, IÏM A COUNTRY BOY
TTITLE17=BOOT SCOOTIN' BOOGIE
TTITLE18=THE DEVIL WENT DOWN TO GEORGIA
TTITLE19=ONE WAY OR ANOTHER
EXTD=
EXTT0=
EXTT1=
EXTT2=
EXTT3=
EXTT4=
EXTT5=
EXTT6=
EXTT7=
EXTT8=
EXTT9=
EXTT10=
EXTT11=
EXTT12=
EXTT13=
EXTT14=
EXTT15=
EXTT16=
EXTT17=
EXTT18=
EXTT19=
PLAYORDER=
